<?xml version="1.0" encoding="UTF-8" standalone="no"?>
<svg
   height="600"
   overflow="scroll"
   width="1200"
   version="1.1"
   id="svg12"
   sodipodi:docname="LaTeX_logo_sq.svg"
   inkscape:version="1.1.1 (3bf5ae0d25, 2021-09-20)"
   xmlns:inkscape="http://www.inkscape.org/namespaces/inkscape"
   xmlns:sodipodi="http://sodipodi.sourceforge.net/DTD/sodipodi-0.dtd"
   xmlns="http://www.w3.org/2000/svg"
   xmlns:svg="http://www.w3.org/2000/svg">
  <defs
     id="defs16" />
  <sodipodi:namedview
     id="namedview14"
     pagecolor="#ffffff"
     bordercolor="#666666"
     borderopacity="1.0"
     inkscape:pageshadow="2"
     inkscape:pageopacity="0.0"
     inkscape:pagecheckerboard="0"
     showgrid="false"
     inkscape:zoom="0.35090174"
     inkscape:cx="445.9938"
     inkscape:cy="528.63802"
     inkscape:window-width="1680"
     inkscape:window-height="987"
     inkscape:window-x="-8"
     inkscape:window-y="-8"
     inkscape:window-maximized="1"
     inkscape:current-layer="svg12" />
  <g
     id="g890"
     transform="translate(0,-300.00001)"
     style="stroke:none;stroke-opacity:1">
    <path
       d="m 269.61074,590.07414 h -11.8165 c -4.7266,48.21131 -11.34384,106.82114 -94.53199,106.82114 H 124.9768 c -22.21502,0 -23.16034,-3.30861 -23.16034,-18.90639 V 427.00646 c 0,-16.07043 0,-22.68767 44.43004,-22.68767 h 15.59777 v -14.1798 c -17.01575,1.41798 -59.55515,1.41798 -78.934206,1.41798 -18.433737,0 -55.301211,0 -71.371649,-1.41798 v 14.1798 h 10.871178 c 36.394815,0 37.340135,5.19926 37.340135,22.21501 v 248.14647 c 0,17.01576 -0.94532,22.21501 -37.340135,22.21501 H 11.538415 v 14.65246 H 256.84892 Z"
       id="path2"
       style="stroke:none;stroke-width:10;stroke-linecap:butt;stroke-miterlimit:4;stroke-dasharray:none;stroke-opacity:1" />
    <path
       d="m 261.57552,389.66634 c -1.89064,-5.67192 -2.83596,-7.56256 -8.98054,-7.56256 -6.14458,0 -7.56256,1.89064 -9.4532,7.56256 l -76.09825,192.84525 c -3.30862,8.03522 -8.98053,22.68768 -38.28545,22.68768 v 11.8165 h 73.26229 v -11.8165 c -14.65246,0 -23.633,-6.61724 -23.633,-16.07044 0,-2.3633 0.47266,-3.30862 1.41798,-6.61724 0,0 16.07044,-40.64875 16.07044,-40.64875 h 93.58667 l 18.90639,48.21131 c 0.94532,1.89064 1.89064,4.25394 1.89064,5.67192 0,9.4532 -17.96107,9.4532 -26.94161,9.4532 v 11.8165 h 93.114 v -11.8165 h -6.61724 c -22.21501,0 -24.57831,-3.30862 -27.88693,-12.76182 0,0 -80.35219,-202.77111 -80.35219,-202.77111 z m -18.9064,33.55885 42.06674,106.82115 h -84.13347 z"
       id="path4"
       style="stroke:none;stroke-width:10;stroke-linecap:butt;stroke-miterlimit:4;stroke-dasharray:none;stroke-opacity:1" />
    <path
       d="m 640.17613,392.97495 h -287.8499 c 0,0 -8.50788,105.87582 -8.50788,105.87582 h 11.34384 c 6.61724,-76.09824 13.70714,-91.69602 85.07879,-91.69602 8.50787,0 20.79703,0 25.52363,0.94532 9.92586,1.89064 9.92586,7.0899 9.92586,17.96108 v 248.14646 c 0,16.07044 0,22.68767 -49.62929,22.68767 h -18.9064 v 14.65246 c 19.37906,-1.41798 67.11771,-1.41798 88.86007,-1.41798 21.74235,0 70.42633,0 89.80538,1.41798 v -14.65246 h -18.90639 c -49.6293,0 -49.6293,-6.61723 -49.6293,-22.68767 V 426.06115 c 0,-9.4532 0,-16.07044 8.50788,-17.96108 5.19926,-0.94532 17.96108,-0.94532 26.94162,-0.94532 70.89899,0 77.98889,15.59778 84.60613,91.69602 h 11.81649 c 0,0 -8.98053,-105.87582 -8.98053,-105.87582 z"
       id="path6"
       style="stroke:none;stroke-width:10;stroke-linecap:butt;stroke-miterlimit:4;stroke-dasharray:none;stroke-opacity:1" />
    <path
       d="m 893.52185,696.42263 h -11.8165 c -11.8165,72.31697 -22.68768,106.82114 -103.51253,106.82114 h -62.39111 c -22.21501,0 -23.16033,-3.30861 -23.16033,-18.90639 V 658.60984 h 42.06673 c 45.84801,0 51.04727,15.12511 51.04727,55.30121 h 11.8165 V 589.12883 h -11.8165 c 0,40.17609 -5.19926,54.82855 -51.04727,54.82855 H 692.64138 V 530.99166 c 0,-15.59778 0.94532,-18.9064 23.16033,-18.9064 h 60.50047 c 72.31697,0 84.60613,25.99629 92.16869,91.69602 h 11.8165 L 867.05289,497.90546 H 602.36333 v 14.1798 h 10.87118 c 36.39481,0 37.34013,5.19926 37.34013,22.21501 v 246.72849 c 0,17.01576 -0.94532,22.21501 -37.34013,22.21501 h -10.87118 v 14.65246 h 271.3068 z"
       id="path8"
       style="stroke:none;stroke-width:10;stroke-linecap:butt;stroke-miterlimit:4;stroke-dasharray:none;stroke-opacity:1" />
    <path
       d="m 1035.7925,529.57367 64.7544,-94.53199 c 9.9259,-15.12511 25.9963,-30.25023 68.063,-30.72289 v -14.1798 h -112.493 v 14.1798 c 18.9064,0.47266 29.3049,10.87118 29.3049,21.74235 0,4.7266 -0.9453,5.67192 -4.254,10.87118 0,0 -53.8832,79.40687 -53.8832,79.40687 l -60.50047,-90.75071 c -0.94532,-1.41798 -3.30862,-5.19925 -3.30862,-7.08989 0,-5.67192 10.39852,-13.70714 30.25024,-14.1798 v -14.1798 c -16.07044,1.41798 -50.57461,1.41798 -68.53569,1.41798 -14.65246,0 -43.95737,-0.47266 -61.44579,-1.41798 v 14.1798 h 8.98054 c 25.99629,0 34.97683,3.30862 43.95737,16.5431 0,0 86.49672,130.9268 86.49672,130.9268 l -77.04352,113.91104 c -6.61724,9.4532 -20.79704,31.19555 -68.06303,31.19555 v 14.65246 h 112.49306 v -14.65246 c -21.74235,-0.47266 -29.77757,-13.23447 -29.77757,-21.74235 0,-4.25394 1.41798,-6.14458 4.7266,-11.34384 l 66.64506,-98.78593 74.6803,112.49307 c 0.9453,1.89064 2.3633,3.78128 2.3633,5.19926 0,5.67192 -10.3986,13.70713 -30.7229,14.17979 v 14.65246 c 16.5431,-1.41798 51.0472,-1.41798 68.5357,-1.41798 19.8517,0 41.594,0.47266 61.4457,1.41798 v -14.65246 h -8.9805 c -24.5783,0 -34.5042,-2.3633 -44.43,-17.01575 0,0 -99.2586,-150.30586 -99.2586,-150.30586 z"
       id="path10"
       style="stroke:none;stroke-width:10;stroke-linecap:butt;stroke-miterlimit:4;stroke-dasharray:none;stroke-opacity:1" />
  </g>
</svg>
