<?xml version="1.0" encoding="UTF-8" standalone="no"?>
<!-- Created with Inkscape (http://www.inkscape.org/) -->

<svg
   width="102.22466mm"
   height="68.620384mm"
   viewBox="0 0 102.22466 68.620384"
   version="1.1"
   id="svg5"
   inkscape:version="1.1.1 (3bf5ae0d25, 2021-09-20)"
   sodipodi:docname="dsp_logo.svg"
   xmlns:inkscape="http://www.inkscape.org/namespaces/inkscape"
   xmlns:sodipodi="http://sodipodi.sourceforge.net/DTD/sodipodi-0.dtd"
   xmlns:xlink="http://www.w3.org/1999/xlink"
   xmlns="http://www.w3.org/2000/svg"
   xmlns:svg="http://www.w3.org/2000/svg">
  <sodipodi:namedview
     id="namedview7"
     pagecolor="#ffffff"
     bordercolor="#666666"
     borderopacity="1.0"
     inkscape:pageshadow="2"
     inkscape:pageopacity="0.0"
     inkscape:pagecheckerboard="true"
     inkscape:document-units="mm"
     showgrid="false"
     inkscape:zoom="1.2810466"
     inkscape:cx="162.75755"
     inkscape:cy="185.39529"
     inkscape:window-width="1920"
     inkscape:window-height="1001"
     inkscape:window-x="-9"
     inkscape:window-y="-9"
     inkscape:window-maximized="1"
     inkscape:current-layer="layer1"
     fit-margin-top="0"
     fit-margin-left="0"
     fit-margin-right="0"
     fit-margin-bottom="0" />
  <defs
     id="defs2">
    <linearGradient
       inkscape:collect="always"
       id="linearGradient3185">
      <stop
         style="stop-color:#003049;stop-opacity:1"
         offset="0"
         id="stop3181" />
      <stop
         style="stop-color:#d62828;stop-opacity:0.99230769"
         offset="1"
         id="stop3183" />
    </linearGradient>
    <inkscape:path-effect
       effect="lattice2"
       gridpoint0="31.393599,62.787204"
       gridpoint1="133.4228,62.787204"
       gridpoint2="31.393599,129.08553"
       gridpoint3="133.4228,129.08553"
       gridpoint4="56.900899,62.787204"
       gridpoint5="107.9155,62.787204"
       gridpoint6="56.900899,129.08553"
       gridpoint7="107.9155,129.08553"
       gridpoint8x9="82.4082,64.646036"
       gridpoint10x11="82.408199,129.08553"
       gridpoint12="31.393599,79.361785"
       gridpoint13="133.4228,79.361785"
       gridpoint14="31.393599,112.51095"
       gridpoint15="133.4228,112.51095"
       gridpoint16="69.086574,81.427154"
       gridpoint17="107.50243,70.893774"
       gridpoint18="68.260426,114.16324"
       gridpoint19="103.37169,111.89134"
       gridpoint20x21="91.908895,60.153858"
       gridpoint22x23="86.125863,108.79329"
       gridpoint24x26="31.393599,95.936367"
       gridpoint25x27="133.4228,95.936367"
       gridpoint28x30="73.630385,101.09979"
       gridpoint29x31="105.23052,90.566409"
       gridpoint32x33x34x35="87.158547,86.229135"
       id="path-effect1818"
       is_visible="true"
       lpeversion="1"
       horizontal_mirror="false"
       vertical_mirror="false"
       perimetral="false"
       live_update="true" />
    <linearGradient
       inkscape:collect="always"
       xlink:href="#linearGradient3185"
       id="linearGradient3187"
       x1="39.386917"
       y1="98.561348"
       x2="141.61159"
       y2="98.561348"
       gradientUnits="userSpaceOnUse"
       gradientTransform="translate(-13.424896,1.8588322)" />
  </defs>
  <g
     inkscape:label="Ebene 1"
     inkscape:groupmode="layer"
     id="layer1"
     transform="translate(-25.962022,-66.10999)">
    <path
       style="color:#000000;fill:url(#linearGradient3187);fill-opacity:1;fill-rule:nonzero;-inkscape-stroke:none"
       d="m 94.96402,66.110687 c -0.95517,0.0072 -2.05874,0.257829 -3.07226,0.373046 -4.148806,-0.107397 -8.586714,0.393423 -13.56836,1.34961 -3.922931,0.226214 -8.424429,0.72666 -12.957031,1.224609 -2.971356,-0.09202 -5.788613,-0.127926 -9.019531,-0.287109 C 44.298701,68.177248 35.448317,67.476775 26.024572,67.473968 l -0.002,0.953125 c 9.376561,0.0028 18.215317,0.702595 30.277344,1.296875 0.69077,0.03403 1.253518,0.03149 1.929687,0.0625 -11.815596,1.427244 -22.138506,2.730122 -32.191406,2.423828 l -0.02925,0.953125 c 10.885156,0.331651 21.852084,-1.161311 34.773438,-2.707031 1.732795,-0.207286 2.994294,-0.266021 4.605468,-0.44336 0.905752,0.02794 1.85837,0.06633 2.75,0.08789 -0.910934,0.227716 -1.670763,0.388781 -2.628906,0.634766 -13.86198,3.558799 -26.786132,7.007911 -39.455078,6.210937 l -0.06055,0.951172 c 12.881032,0.810316 25.8958,-2.680978 39.751953,-6.238281 2.185516,-0.56109 4.037589,-0.981715 5.982422,-1.44336 1.759909,0.02629 3.652367,-2.9e-5 5.40625,0 -2.199269,0.749843 -4.3358,1.473412 -6.904297,2.400391 -14.659678,5.290727 -29.510275,10.376117 -44.164062,9.066406 l -0.08398,0.949219 c 14.928047,1.334223 29.903206,-3.825028 44.572266,-9.119141 3.587615,-1.294782 6.736281,-2.401895 9.605469,-3.333984 2.17909,-0.01851 4.363087,-0.02215 6.625004,-0.08203 C 83.107204,71.50109 79.152546,73.16437 74.31559,75.26303 59.037297,81.891981 42.545028,88.207121 26.075353,86.41928 l -0.103515,0.947266 c 16.776426,1.82114 33.417814,-4.586092 48.722656,-11.226563 6.034709,-2.618341 10.753097,-4.621033 15.031246,-6.078125 0.0322,-0.0011 0.0596,-8.55e-4 0.0918,-0.002 4.37487,-0.149144 7.24464,-0.346069 11.14648,-0.554687 0.0156,0.0018 0.0313,0.0021 0.0469,0.0039 -1.64705,0.06932 -3.46278,0.388251 -5.65625,1.119141 -4.8566,1.61827 -10.419445,4.503359 -17.978512,8.117187 C 61.69355,86.242961 43.989971,93.325635 26.081213,91.155605 l -0.115235,0.94727 c 18.228698,2.20879 36.098988,-4.979131 51.822266,-12.496095 7.572778,-3.620382 13.126866,-6.494692 17.867186,-8.074218 4.60588,-1.534729 7.50396,-1.500973 9.89453,-0.214844 2.34966,1.264108 4.30119,3.736807 6.2168,6.490234 1.9156,2.753428 3.79326,5.771252 6.11523,8.076172 4.70099,4.666477 10.03907,6.203121 10.03907,6.203121 l 0.26367,-0.91601 c 0,0 -5.10937,-1.476535 -9.62891,-5.962892 -2.20776,-2.191543 -4.07145,-5.164859 -6.00586,-7.945313 -1.93441,-2.780454 -3.9409,-5.384053 -6.54883,-6.787109 -0.511,-0.274918 -1.06753,-0.44526 -1.62695,-0.613281 0.19672,0.0262 0.41607,0.03788 0.61133,0.06445 0.17286,0.0597 0.34353,0.118805 0.51562,0.179687 4.54199,2.853512 8.07008,8.180462 12.36133,11.751953 4.94838,4.118389 10.06641,5.494141 10.06641,5.494141 l 0.24804,-0.919922 c 0,0 -4.9245,-1.329864 -9.70507,-5.308594 -2.43542,-2.026934 -4.65183,-4.793217 -7.05078,-7.349609 2.25179,1.61838 4.51336,3.321265 6.33789,4.445313 5.31733,3.275878 10.18554,4.402343 10.18554,4.402343 l 0.2168,-0.929687 c 0,0 -4.7229,-1.094229 -9.90234,-4.285156 -2.11742,-1.304486 -4.75306,-3.363586 -7.54102,-5.322266 2.44214,1.010511 4.93376,2.07476 6.85547,2.806641 5.78029,2.201413 10.39844,3 10.39844,3 l 0.16211,-0.939454 c 0,0 -4.52848,-0.782553 -10.22266,-2.951171 -2.31916,-0.883248 -5.28136,-2.196655 -8.4043,-3.449219 2.78232,0.430199 5.62949,0.880125 7.78907,1.214844 6.31584,0.978912 10.71289,1.394531 10.71289,1.394531 l 0.0879,-0.949219 c 0,0 -4.36432,-0.411815 -10.6543,-1.386719 -2.86695,-0.444357 -6.46676,-1.055447 -10.39258,-1.623047 3.14191,-0.177371 7.3567,-0.380767 9.86719,-0.492187 6.89722,-0.306111 11.13281,-0.283203 11.13281,-0.283203 l 0.006,-0.953125 c 0,0 -4.26494,-0.02377 -11.18164,0.283203 -3.16043,0.140266 -8.26411,0.387089 -12.375,0.617187 -0.20116,-0.09474 -0.36219,-0.264514 -0.56836,-0.349609 -0.29132,-0.120241 -0.61307,-0.173866 -0.91406,-0.271484 -0.67452,-0.277814 -1.35346,-0.670172 -2.02149,-0.857422 -1.96024,-0.549466 -3.93637,-0.800893 -6.03125,-0.785156 z m -3.04687,1.330078 c 1.05699,0.02865 2.10557,0.12976 3.14844,0.238281 -0.3207,0.05813 -0.61177,0.07972 -0.94532,0.152344 -0.19238,-0.01179 -0.36404,-0.04779 -0.55664,-0.05859 -1.51661,-0.08504 -3.00894,0.04756 -4.496086,0.01758 1.014026,-0.200414 1.909506,-0.240136 2.849606,-0.349609 z m -6.578125,0.287109 c -0.09149,0.02406 -0.191076,0.05351 -0.283203,0.07813 -0.267854,0.003 -0.542228,-6.92e-4 -0.810547,0.0039 0.379051,-0.04665 0.721383,-0.0429 1.09375,-0.08203 z m 13.013675,0.375 c 0.42649,0.08238 0.85202,0.206683 1.27929,0.304688 -0.64578,-0.0678 -1.26426,-0.141507 -1.91797,-0.201172 0.19257,-0.0127 0.45168,-0.09752 0.63868,-0.103516 z m -7.74805,0.632813 c -0.33372,0.10592 -0.71072,0.258121 -1.05078,0.373046 -2.056406,0.06895 -3.912098,0.03635 -5.876954,0.07227 0.518957,-0.150009 1.033085,-0.290185 1.53125,-0.423828 1.782688,-0.01771 3.604238,-0.08011 5.396484,-0.02148 z m -9.027343,0.03516 c -0.553476,0.171685 -1.018956,0.269839 -1.595704,0.457031 -1.40791,0.01131 -2.885982,0.05841 -4.283203,0.05273 0.973584,-0.210026 1.800887,-0.318475 2.722657,-0.496093 1.079298,-0.06196 2.100053,0.02492 3.15625,-0.01367 z m 12.544913,0.01757 c 0.22898,0.01415 0.43545,0.05285 0.66407,0.06836 -0.5925,0.02656 -0.97677,0.05495 -1.57813,0.08008 0.34326,-0.0887 0.58616,-0.07444 0.91406,-0.148437 z m 8.71095,4.457031 c -1.63703,0.03114 -3.54184,0.4585 -5.83008,1.292969 -4.73442,1.72653 -10.191796,4.739559 -17.857424,8.539062 C 63.293043,90.9349 44.908755,98.304465 26.085119,95.891925 l -0.123047,0.94532 c 19.143728,2.45356 37.704865,-5.02408 53.607422,-12.90625 7.68369,-3.808455 13.140096,-6.811409 17.759766,-8.496094 4.45683,-1.625301 7.09619,-1.605711 9.22266,-0.291015 2.09206,1.293423 3.8163,3.87188 5.54296,6.748047 1.72666,2.876166 3.4621,6.03286 5.73047,8.445312 4.59736,4.88935 10.09375,6.48437 10.09375,6.48437 l 0.26758,-0.91601 c 0,0 -5.25726,-1.53193 -9.66601,-6.220704 -2.1488,-2.285277 -3.86819,-5.38608 -5.60743,-8.283203 -1.73924,-2.897123 -3.49185,-5.606588 -5.85937,-7.070312 -1.21516,-0.751274 -2.58368,-1.117075 -4.2207,-1.085938 z m 0.0644,5.285156 c -1.60234,0.03944 -3.47084,0.466649 -5.72266,1.292969 -4.67524,1.715617 -10.041496,4.668361 -17.68945,8.402344 -15.784983,7.706758 -34.273343,14.889943 -53.400391,12.400403 l -0.123047,0.94726 c 19.437524,2.52995 38.102869,-4.757335 53.941406,-12.490237 7.667716,-3.743633 13.035862,-6.68858 17.599612,-8.363281 4.38688,-1.609801 6.95339,-1.608669 9.01953,-0.337891 2.03299,1.250391 3.72228,3.767524 5.43359,6.578125 1.71131,2.810601 3.45253,5.899189 5.74414,8.259769 4.64475,4.784535 10.22461,6.339845 10.22461,6.339845 l 0.25586,-0.91992 c 0,0 -5.34593,-1.499095 -9.79687,-6.083985 -2.16858,-2.23385 -3.8907,-5.262685 -5.61328,-8.091803 -1.72259,-2.829117 -3.43771,-5.473551 -5.74805,-6.894531 -1.18648,-0.729742 -2.52267,-1.0785 -4.125,-1.039063 z m -1.23633,6.625 c -1.63551,0.04382 -3.52144,0.443644 -5.7793,1.208985 -4.67911,1.586065 -9.99555,4.314426 -17.499996,7.744136 -15.493137,7.080745 -33.507497,13.647085 -52.298828,11.253925 l -0.119141,0.94531 c 19.083695,2.4304 37.27016,-4.22791 52.814453,-11.332045 7.52313,-3.43825 12.838612,-6.157427 17.410152,-7.707029 4.40332,-1.492586 7.08661,-1.506801 9.30079,-0.341797 2.17652,1.145189 4.02084,3.44243 5.88867,6.013666 1.86783,2.57124 3.75997,5.40248 6.14648,7.562505 4.83301,4.37434 10.41016,5.79494 10.41016,5.79494 l 0.23633,-0.92579 c 0,0 -5.36737,-1.37789 -10.00586,-5.576185 -2.26357,-2.04874 -4.13093,-4.82424 -6.01368,-7.41601 -1.88274,-2.591771 -3.77967,-5.013544 -6.21875,-6.296876 -1.25145,-0.658462 -2.63597,-0.971551 -4.27148,-0.927735 z m -2.62695,7.728511 c -1.73801,0.063 -3.62849,0.43574 -5.78516,1.07031 -4.313336,1.26914 -9.733189,3.58154 -17.304686,6.634775 -15.007406,6.05178 -32.015225,11.64137 -49.863281,9.50782 l -0.113281,0.94727 c 18.113685,2.16529 35.283946,-3.50135 50.333984,-9.57032 7.579806,-3.056585 12.997548,-5.362075 17.216794,-6.603525 4.21925,-1.24146 7.1944,-1.42184 10.03516,-0.30859 5.02808,1.97042 8.68929,7.893295 13.76953,11.560555 5.13553,3.70716 10.62695,4.91407 10.62695,4.91407 l 0.20508,-0.93164 c 0,0 -5.31988,-1.18007 -10.27344,-4.75586 -4.85262,-3.50297 -8.5083,-9.531345 -13.98047,-11.675805 -1.54345,-0.60485 -3.12918,-0.85201 -4.86718,-0.78906 z m -3.34375,8.560565 c -5.66927,0.14965 -12.362125,2.4492 -23.279299,6.04102 -14.374534,4.7293 -29.950101,9.08445 -46.337891,7.3457 l -0.09961,0.94922 c 16.616885,1.76306 32.33097,-2.64987 46.734375,-7.38867 14.561779,-4.79091 21.421635,-7.17317 28.191405,-5.42579 6.02754,1.55581 10.7589,6.17477 16.22656,9.01172 5.51433,2.86119 10.84375,3.79883 10.84375,3.79883 l 0.16602,-0.93945 c 0,0 -5.20337,-0.92232 -10.57031,-3.70703 -5.28647,-2.74294 -10.07991,-7.44942 -16.42774,-9.0879 -1.78037,-0.45954 -3.55751,-0.64753 -5.44726,-0.59765 z m -3.95508,8.94922 c -6.290362,0.10888 -13.181159,1.68206 -23.595703,4.16797 -13.656957,3.25985 -27.516435,6.26065 -42.076172,5.00586 l -0.08008,0.94922 c 14.740757,1.27038 28.706988,-1.76439 42.376953,-5.02735 13.880523,-3.31321 21.355112,-4.95944 29.431642,-3.75195 6.28348,0.93941 13.93316,4.48545 19.16602,6.19922 5.92993,1.94205 11.03515,2.57812 11.03515,2.57812 l 0.11914,-0.94531 c 0,0 -5.02275,-0.62821 -10.85742,-2.53906 -5.12155,-1.67731 -12.80612,-5.26214 -19.32227,-6.23633 -2.07174,-0.30974 -4.10048,-0.43668 -6.19727,-0.40039 z m -4.097656,8.80273 c -6.980091,0.0615 -14.119689,0.93999 -24.025391,2.33985 -12.932385,1.82757 -24.98978,3.51123 -37.560547,2.76562 l -0.05664,0.95117 c 12.691412,0.75277 24.818734,-0.94575 37.751953,-2.77343 13.196653,-1.86493 21.394188,-2.78836 30.845701,-2.10938 7.75628,0.5572 16.51673,2.5034 22.25,3.4707 6.34191,1.07 11.17578,1.41211 11.17578,1.41211 l 0.0684,-0.95117 c 0,0 -4.78952,-0.33807 -11.08594,-1.40039 -5.68282,-0.95879 -14.47669,-2.91754 -22.33984,-3.48242 -2.38817,-0.17156 -4.69674,-0.24317 -7.023436,-0.22266 z m 4.132806,8.11719 c -10.761651,-0.24688 -19.71639,0.0839 -32.337885,0.75586 -12.294076,0.65456 -22.714961,1.26054 -33.396484,0.9668 l -0.02539,0.95312 c 10.734551,0.2952 21.181227,-0.31238 33.472657,-0.96679 12.614216,-0.67161 21.535665,-1.00202 32.265622,-0.75586 9.06439,0.20795 18.94933,0.90117 25.06055,1.24218 6.69412,0.37355 11.23242,0.48047 11.23242,0.48047 l 0.0215,-0.95312 c 0,0 -4.52072,-0.10768 -11.20117,-0.48047 -6.09661,-0.3402 -15.99481,-1.03349 -25.0918,-1.24219 z m -65.746088,6.45898 -0.002,0.95313 c 34.024008,0.01 102.031248,0 102.031248,0 l -0.002,-0.95313 c 0,0 -68.003887,0.01 -102.027335,0 z"
       id="path998" />
  </g>
</svg>
