<?xml version="1.0" encoding="UTF-8" standalone="no"?>
<!-- Created with Inkscape (http://www.inkscape.org/) -->

<svg
   width="7998.8013"
   height="438.27011"
   viewBox="0 0 2116.3496 115.95896"
   version="1.1"
   id="svg5"
   inkscape:version="1.1.1 (3bf5ae0d25, 2021-09-20)"
   sodipodi:docname="wave_r.svg"
   xmlns:inkscape="http://www.inkscape.org/namespaces/inkscape"
   xmlns:sodipodi="http://sodipodi.sourceforge.net/DTD/sodipodi-0.dtd"
   xmlns="http://www.w3.org/2000/svg"
   xmlns:svg="http://www.w3.org/2000/svg">
  <sodipodi:namedview
     id="namedview7"
     pagecolor="#ffffff"
     bordercolor="#666666"
     borderopacity="1.0"
     inkscape:pageshadow="2"
     inkscape:pageopacity="0.0"
     inkscape:pagecheckerboard="true"
     inkscape:document-units="mm"
     showgrid="false"
     fit-margin-top="0"
     fit-margin-left="0"
     fit-margin-right="0"
     fit-margin-bottom="0"
     inkscape:zoom="0.056614795"
     inkscape:cx="1633.8485"
     inkscape:cy="-2393.3673"
     inkscape:window-width="1680"
     inkscape:window-height="987"
     inkscape:window-x="-8"
     inkscape:window-y="-8"
     inkscape:window-maximized="1"
     inkscape:current-layer="layer1"
     units="px" />
  <defs
     id="defs2">
    <inkscape:path-effect
       effect="lattice2"
       gridpoint0="-1666.2003,-137.15452"
       gridpoint1="449.64922,-137.15452"
       gridpoint2="-1666.2003,-29.511965"
       gridpoint3="449.64922,-29.511965"
       gridpoint4="-1137.2379,-137.15452"
       gridpoint5="-79.31316,-137.15452"
       gridpoint6="-1137.2379,-29.511965"
       gridpoint7="-79.31316,-29.511965"
       gridpoint8x9="-608.27554,-129.56025"
       gridpoint10x11="-607.69137,-21.333523"
       gridpoint12="-1666.2003,-110.24388"
       gridpoint13="449.64922,-110.24388"
       gridpoint14="-1666.2003,-56.422604"
       gridpoint15="449.64922,-56.422604"
       gridpoint16="-1137.2379,-110.24388"
       gridpoint17="-79.31316,-110.24388"
       gridpoint18="-1137.2379,-56.422604"
       gridpoint19="-79.31316,-56.422604"
       gridpoint20x21="-608.27554,-99.144567"
       gridpoint22x23="-608.27554,-46.491638"
       gridpoint24x26="-1666.2003,-83.333242"
       gridpoint25x27="449.64922,-83.333242"
       gridpoint28x30="-1137.2379,-83.333242"
       gridpoint29x31="-79.31316,-83.333242"
       gridpoint32x33x34x35="-608.27554,-73.402277"
       id="path-effect1689"
       is_visible="true"
       lpeversion="1"
       horizontal_mirror="false"
       vertical_mirror="false"
       perimetral="false"
       live_update="true" />
    <inkscape:path-effect
       effect="lattice2"
       gridpoint0="-1666.2003,-137.15452"
       gridpoint1="449.64922,-137.15452"
       gridpoint2="-1666.2003,-29.511965"
       gridpoint3="449.64922,-29.511965"
       gridpoint4="-1137.2379,-137.15452"
       gridpoint5="-79.31316,-137.15452"
       gridpoint6="-1137.2379,-29.511965"
       gridpoint7="-79.31316,-29.511965"
       gridpoint8x9="-608.27554,-120.63157"
       gridpoint10x11="-609.10169,-17.945901"
       gridpoint12="-1666.2003,-110.24388"
       gridpoint13="449.64922,-110.24388"
       gridpoint14="-1666.2003,-56.422604"
       gridpoint15="449.64922,-56.422604"
       gridpoint16="-1137.2379,-110.24388"
       gridpoint17="-79.31316,-110.24388"
       gridpoint18="-1137.2379,-56.422604"
       gridpoint19="-79.31316,-56.422604"
       gridpoint20x21="-608.27554,-100.33011"
       gridpoint22x23="-608.27554,-46.508835"
       gridpoint24x26="-1666.2003,-83.333242"
       gridpoint25x27="449.64922,-83.333242"
       gridpoint28x30="-1137.2379,-83.333242"
       gridpoint29x31="-79.31316,-83.333242"
       gridpoint32x33x34x35="-608.27554,-75.071768"
       id="path-effect1221"
       is_visible="true"
       lpeversion="1"
       horizontal_mirror="false"
       vertical_mirror="false"
       perimetral="false"
       live_update="true" />
    <inkscape:path-effect
       effect="lattice2"
       gridpoint0="-1666.2003,-137.15452"
       gridpoint1="449.64922,-137.15452"
       gridpoint2="-1666.2003,-29.511965"
       gridpoint3="449.64922,-29.511965"
       gridpoint4="-1137.2379,-137.15452"
       gridpoint5="-79.31316,-137.15452"
       gridpoint6="-1137.2379,-29.511965"
       gridpoint7="-79.31316,-29.511965"
       gridpoint8x9="-610.61224,-50.295788"
       gridpoint10x11="-608.27554,-112.31587"
       gridpoint12="-1666.2003,-110.24388"
       gridpoint13="449.64922,-110.24388"
       gridpoint14="-1666.2003,-56.422604"
       gridpoint15="449.64922,-56.422604"
       gridpoint16="-1137.2379,-110.24388"
       gridpoint17="-79.31316,-110.24388"
       gridpoint18="-1137.2379,-56.422604"
       gridpoint19="-79.31316,-56.422604"
       gridpoint20x21="-610.02806,-67.073684"
       gridpoint22x23="-607.69137,-97.349208"
       gridpoint24x26="-1666.2003,-83.333242"
       gridpoint25x27="449.64922,-83.333242"
       gridpoint28x30="-1137.2379,-83.333242"
       gridpoint29x31="-79.31316,-83.333242"
       gridpoint32x33x34x35="-608.27554,-86.838289"
       id="path-effect885"
       is_visible="true"
       lpeversion="1"
       horizontal_mirror="false"
       vertical_mirror="false"
       perimetral="false"
       live_update="true" />
    <inkscape:path-effect
       effect="lattice2"
       gridpoint0="-1666.2003,-137.15452"
       gridpoint1="449.64922,-137.15452"
       gridpoint2="-1666.2003,-29.511965"
       gridpoint3="449.64922,-29.511965"
       gridpoint4="-1137.2379,-121.96598"
       gridpoint5="-76.976462,-151.17471"
       gridpoint6="-1137.2379,5.538502"
       gridpoint7="-71.134718,-44.700501"
       gridpoint8x9="-624.63242,-107.9458"
       gridpoint10x11="-625.80077,-14.323429"
       gridpoint12="-1666.2003,-110.24388"
       gridpoint13="449.64922,-110.24388"
       gridpoint14="-1666.2003,-56.422604"
       gridpoint15="449.64922,-56.422604"
       gridpoint16="-1151.2581,-91.550299"
       gridpoint17="-41.925995,-152.30444"
       gridpoint18="-1196.8237,-26.045532"
       gridpoint19="-44.262693,-61.095999"
       gridpoint20x21="-604.77049,-152.30444"
       gridpoint22x23="-608.27554,-56.422604"
       gridpoint24x26="-1666.2003,-83.333242"
       gridpoint25x27="449.64922,-83.333242"
       gridpoint28x30="-1060.1269,-76.323149"
       gridpoint29x31="-37.2526,-102.02682"
       gridpoint32x33x34x35="-600.0971,-75.1548"
       id="path-effect1039"
       is_visible="true"
       lpeversion="1"
       horizontal_mirror="false"
       vertical_mirror="false"
       perimetral="false"
       live_update="true" />
    <inkscape:path-effect
       effect="lattice2"
       gridpoint0="-1666.2003,-137.15452"
       gridpoint1="449.64922,-137.15452"
       gridpoint2="-1666.2003,-29.511965"
       gridpoint3="449.64922,-29.511965"
       gridpoint4="-1137.2379,-137.15452"
       gridpoint5="-79.31316,-137.15452"
       gridpoint6="-1137.2379,-29.511965"
       gridpoint7="-79.31316,-29.511965"
       gridpoint8x9="-608.27554,-137.15452"
       gridpoint10x11="-608.27554,-29.511965"
       gridpoint12="-1666.2003,-110.24388"
       gridpoint13="449.64922,-110.24388"
       gridpoint14="-1666.2003,-56.422604"
       gridpoint15="449.64922,-56.422604"
       gridpoint16="-1137.2379,-110.24388"
       gridpoint17="-79.31316,-110.24388"
       gridpoint18="-1137.2379,-56.422604"
       gridpoint19="-79.31316,-56.422604"
       gridpoint20x21="-608.27554,-110.24388"
       gridpoint22x23="-608.27554,-56.422604"
       gridpoint24x26="-1666.2003,-83.333242"
       gridpoint25x27="449.64922,-83.333242"
       gridpoint28x30="-1137.2379,-83.333242"
       gridpoint29x31="-79.31316,-83.333242"
       gridpoint32x33x34x35="-608.27554,-83.333242"
       id="path-effect1037"
       is_visible="true"
       lpeversion="1"
       horizontal_mirror="false"
       vertical_mirror="false"
       perimetral="false"
       live_update="true" />
    <inkscape:path-effect
       effect="lattice2"
       gridpoint0="-1126.2278,-36.925911"
       gridpoint1="196.51158,-36.925911"
       gridpoint2="-1126.2278,99.964649"
       gridpoint3="196.51158,111.64814"
       gridpoint4="-795.54295,-36.925911"
       gridpoint5="-113.14298,-33.420864"
       gridpoint6="-783.97689,59.189863"
       gridpoint7="-131.83657,74.260974"
       gridpoint8x9="-453.17462,-17.06398"
       gridpoint10x11="-467.19481,120.99493"
       gridpoint12="-1126.2278,-10.005451"
       gridpoint13="196.51158,-10.005451"
       gridpoint14="-1126.2278,43.835468"
       gridpoint15="196.51158,75.380888"
       gridpoint16="-755.88788,-36.442169"
       gridpoint17="-109.63794,-32.204081"
       gridpoint18="-788.93378,20.70334"
       gridpoint19="-190.25401,78.885934"
       gridpoint20x21="-460.18471,15.698224"
       gridpoint22x23="-471.8682,80.054283"
       gridpoint24x26="-1126.2278,16.915008"
       gridpoint25x27="196.51158,16.915008"
       gridpoint28x30="-744.32181,3.6966492"
       gridpoint29x31="-76.924169,-27.48225"
       gridpoint32x33x34x35="-512.76041,-7.6203188"
       id="path-effect1875"
       is_visible="true"
       lpeversion="1"
       horizontal_mirror="false"
       vertical_mirror="false"
       perimetral="false"
       live_update="true" />
    <inkscape:path-effect
       effect="lattice2"
       gridpoint0="91.664409,125.82925"
       gridpoint1="599.66442,125.82925"
       gridpoint2="91.664409,230.8604"
       gridpoint3="599.66442,230.8604"
       gridpoint4="209.31762,141.60196"
       gridpoint5="472.66442,125.82925"
       gridpoint6="219.83276,223.26613"
       gridpoint7="477.33781,227.35535"
       gridpoint8x9="345.66441,125.82925"
       gridpoint10x11="345.66441,230.8604"
       gridpoint12="91.664409,152.08704"
       gridpoint13="599.66442,152.08704"
       gridpoint14="91.664409,204.60261"
       gridpoint15="599.66442,204.60261"
       gridpoint16="226.25868,132.80928"
       gridpoint17="462.73345,179.54324"
       gridpoint18="280.00273,172.47302"
       gridpoint19="474.41694,247.24735"
       gridpoint20x21="345.66441,152.08704"
       gridpoint22x23="386.55663,199.34504"
       gridpoint24x26="91.664409,178.34483"
       gridpoint25x27="599.66442,178.34483"
       gridpoint28x30="232.6846,157.31454"
       gridpoint29x31="479.09034,186.52327"
       gridpoint32x33x34x35="333.98093,182.43405"
       id="path-effect2577"
       is_visible="true"
       lpeversion="1"
       horizontal_mirror="false"
       vertical_mirror="false"
       perimetral="false"
       live_update="true" />
  </defs>
  <g
     inkscape:label="Ebene 1"
     inkscape:groupmode="layer"
     id="layer1"
     transform="translate(1666.2003,137.65452)">
    <g
       id="g1687"
       inkscape:path-effect="#path-effect1689">
      <path
         style="fill:none;stroke:#d62828;stroke-width:1;stroke-linecap:butt;stroke-linejoin:miter;stroke-miterlimit:4;stroke-dasharray:none;stroke-opacity:1"
         d="m -1666.2003,-131.26121 c 192.3445,0 568.0593,6.60545 698.42095,8.18024 208.73967,2.5216 369.82976,2.84055 524.83625,2.01928 143.87246,-0.76228 277.63387,-2.55988 376.046377,-3.93645 116.552169,-1.6303 172.710103,-2.49879 252.071683,-3.42686 130.49995,-1.52611 200.08932,-1.5368 231.41425,-1.47537 33.06001,0.0648 33.06,0.20261 33.06,0.20261"
         id="path1016"
         inkscape:original-d="m -1666.2003,-131.26121 c 2115.84951,0 2115.84951,1.56345 2115.84951,1.56345" />
      <path
         style="fill:none;stroke:#d62828;stroke-width:1;stroke-linecap:butt;stroke-linejoin:miter;stroke-miterlimit:4;stroke-dasharray:none;stroke-opacity:1"
         d="m -1666.2003,-125.36792 c 191.8874,0 568.5367,8.58704 698.44597,10.61699 208.71906,3.26142 369.86623,3.65067 524.84167,2.5535 143.86238,-1.0185 277.63277,-3.38678 376.033363,-5.20155 117.104153,-2.1597 172.144627,-3.28626 252.060377,-4.53152 130.32264,-2.03072 200.25572,-2.10356 231.40825,-2.06463 33.05985,0.0413 33.05988,0.19066 33.05988,0.19066"
         id="path1098"
         inkscape:original-d="m -1666.2003,-125.36792 c 2115.84951,0 2115.84951,1.56345 2115.84951,1.56345" />
      <path
         style="fill:none;stroke:#d62828;stroke-width:1;stroke-linecap:butt;stroke-linejoin:miter;stroke-miterlimit:4;stroke-dasharray:none;stroke-opacity:1"
         d="m -1666.2003,-119.47467 c 191.5407,0 568.9038,10.64073 698.47099,13.14011 208.70708,4.02599 369.89407,4.48481 524.84709,3.0996 143.83742,-1.28584 277.64656,-4.2466 376.020349,-6.51414 117.398175,-2.70607 171.837111,-4.10052 252.049071,-5.67131 130.17245,-2.54918 200.39499,-2.68554 231.40225,-2.66928 33.05967,0.0173 33.05976,0.17848 33.05976,0.17848"
         id="path1100"
         inkscape:original-d="m -1666.2003,-119.47467 c 2115.84951,0 2115.84951,1.56346 2115.84951,1.56346" />
      <path
         style="fill:none;stroke:#d62828;stroke-width:1;stroke-linecap:butt;stroke-linejoin:miter;stroke-miterlimit:4;stroke-dasharray:none;stroke-opacity:1"
         d="m -1666.2003,-113.58138 c 126.987,0 261.4927,3.54575 372.4863,6.68126 128.6938,3.63553 212.3031,6.29955 326.00971,8.894486 208.70079,4.762827 369.91622,5.286118 524.85251,3.620906 143.80785,-1.545607 277.66496,-5.079606 376.007335,-7.783452 117.536443,-3.23157 171.685355,-4.886 252.037765,-6.76822 130.04865,-3.04633 200.50787,-3.24324 231.39625,-3.2484 33.05948,-0.006 33.05964,0.16688 33.05964,0.16688"
         id="path1102"
         inkscape:original-d="m -1666.2003,-113.58138 c 2115.84951,0 2115.84951,1.56346 2115.84951,1.56346" />
      <path
         style="fill:none;stroke:#d62828;stroke-width:1;stroke-linecap:butt;stroke-linejoin:miter;stroke-miterlimit:4;stroke-dasharray:none;stroke-opacity:1"
         d="m -1666.2003,-107.68809 c 126.9841,0 261.5012,4.04985 372.4971,7.6293 128.6291,4.148095 212.3836,7.192101 326.02393,10.147514 208.69826,5.42756 369.93461,6.006614 524.85793,4.086538 143.77717,-1.781933 277.68446,-5.835192 375.994321,-8.932586 117.578995,-3.704496 171.629309,-5.595546 252.026459,-7.756376 129.94639,-3.49256 200.59922,-3.74337 231.39025,-3.76748 33.05929,-0.0259 33.05952,0.15655 33.05952,0.15655"
         id="path1104"
         inkscape:original-d="m -1666.2003,-107.68809 c 2115.84951,0 2115.84951,1.56346 2115.84951,1.56346" />
      <path
         style="fill:none;stroke:#d62828;stroke-width:1;stroke-linecap:butt;stroke-linejoin:miter;stroke-miterlimit:4;stroke-dasharray:none;stroke-opacity:1"
         d="m -1666.2003,-101.79483 c 126.9822,0 261.5089,4.473107 372.5079,8.425058 128.5802,4.577905 212.4485,7.941047 326.03815,11.197968 208.69831,5.983944 369.95042,6.607182 524.86335,4.471436 143.74636,-1.981795 277.7041,-6.471878 375.981307,-9.898614 117.559125,-4.099058 171.635683,-6.190468 252.015153,-8.581983 129.86084,-3.863725 200.67385,-4.158805 231.38425,-4.198455 33.0591,-0.0427 33.0594,0.14805 33.0594,0.14805"
         id="path1106"
         inkscape:original-d="m -1666.2003,-101.79483 c 2115.84951,0 2115.84951,1.56346 2115.84951,1.56346" />
      <path
         style="fill:none;stroke:#d62828;stroke-width:1;stroke-linecap:butt;stroke-linejoin:miter;stroke-miterlimit:4;stroke-dasharray:none;stroke-opacity:1"
         d="m -1666.2003,-95.901537 c 126.9808,0 261.516,4.79408 372.5186,9.028234 128.5424,4.903203 212.5024,8.508473 326.05248,11.992701 208.70018,6.403862 369.96439,7.057574 524.86876,4.756341 143.71541,-2.135011 277.72388,-6.957324 375.968293,-10.632555 117.494726,-4.395367 171.686587,-6.64067 252.003857,-9.203388 66.71928,-2.128842 115.06409,-3.197118 152.86869,-3.793648 36.28352,-0.572528 62.88384,-0.699993 78.50956,-0.726014 33.0589,-0.05505 33.05927,0.141789 33.05927,0.141789"
         id="path1108"
         inkscape:original-d="m -1666.2003,-95.901537 c 2115.84951,0 2115.84951,1.56346 2115.84951,1.56346" />
      <path
         style="fill:none;stroke:#d62828;stroke-width:1;stroke-linecap:butt;stroke-linejoin:miter;stroke-miterlimit:4;stroke-dasharray:none;stroke-opacity:1"
         d="m -1666.2003,-90.008246 c 126.9798,0 261.5227,4.997447 372.5294,9.410047 128.5125,5.108472 212.5481,8.867314 326.0667,12.493819 208.70344,6.667314 369.97699,7.336396 524.87418,4.927796 143.68386,-2.234236 277.74425,-7.268312 375.955279,-11.099359 117.39477,-4.579373 171.773051,-6.924652 251.992551,-9.591026 66.70935,-2.217318 115.06735,-3.330564 152.86385,-3.95324 36.27365,-0.597588 62.89188,-0.733163 78.5084,-0.762652 33.05873,-0.06243 33.05915,0.138075 33.05915,0.138075"
         id="path1110"
         inkscape:original-d="m -1666.2003,-90.008246 c 2115.84951,0 2115.84951,1.56346 2115.84951,1.56346" />
      <path
         style="fill:none;stroke:#d62828;stroke-width:1;stroke-linecap:butt;stroke-linejoin:miter;stroke-miterlimit:4;stroke-dasharray:none;stroke-opacity:1"
         d="m -1666.2003,-84.114955 c 126.9792,0 261.529,5.074023 372.5402,9.553251 128.4888,5.184442 212.5878,9.001372 326.08092,12.678709 208.70779,6.762426 369.98849,7.431123 524.8796,4.978151 143.65105,-2.274967 277.76589,-7.390758 375.942265,-11.277921 117.262741,-4.642862 171.891595,-7.029541 251.981245,-9.72745 66.69873,-2.246822 115.07129,-3.374307 152.859,-4.004876 36.26721,-0.605196 62.8965,-0.743031 78.50725,-0.773476 33.05856,-0.06447 33.05903,0.137071 33.05903,0.137071"
         id="path1112"
         inkscape:original-d="m -1666.2003,-84.114955 c 2115.84951,0 2115.84951,1.563459 2115.84951,1.563459" />
      <path
         style="fill:none;stroke:#d62828;stroke-width:1;stroke-linecap:butt;stroke-linejoin:miter;stroke-miterlimit:4;stroke-dasharray:none;stroke-opacity:1"
         d="m -1666.2003,-78.221665 c 126.979,0 261.535,5.020749 372.5509,9.452134 128.47,5.128092 212.6227,8.905309 326.09524,12.540033 208.71309,6.685445 369.99905,7.338089 524.88502,4.905557 143.6161,-2.255536 277.78967,-7.31971 375.929251,-11.161076 117.098333,-4.583447 172.042509,-6.951091 251.969939,-9.607323 66.68727,-2.21622 115.07608,-3.326673 152.85416,-3.946592 36.26396,-0.595072 62.89792,-0.72923 78.50609,-0.758084 33.05842,-0.06112 33.05891,0.13881 33.05891,0.13881"
         id="path1114"
         inkscape:original-d="m -1666.2003,-78.221665 c 2115.84951,0 2115.84951,1.563459 2115.84951,1.563459" />
      <path
         style="fill:none;stroke:#d62828;stroke-width:1;stroke-linecap:butt;stroke-linejoin:miter;stroke-miterlimit:4;stroke-dasharray:none;stroke-opacity:1"
         d="m -1666.2003,-72.328407 c 126.9791,0 261.5406,4.840698 372.5617,9.112519 128.4552,4.942646 212.6533,8.584648 326.10946,12.085725 208.71929,6.440747 370.00871,7.062497 524.89044,4.713975 143.57791,-2.177119 277.81668,-7.05935 375.916237,-10.755607 116.8982,-4.404564 172.229143,-6.693689 251.958633,-9.237417 66.67472,-2.127222 115.08196,-3.190305 152.84932,-3.781615 36.26396,-0.567773 62.89609,-0.692514 78.50493,-0.71732 33.05829,-0.05254 33.05879,0.1432 33.05879,0.1432"
         id="path1116"
         inkscape:original-d="m -1666.2003,-72.328407 c 2115.84951,0 2115.84951,1.56346 2115.84951,1.56346" />
      <path
         style="fill:none;stroke:#d62828;stroke-width:1;stroke-linecap:butt;stroke-linejoin:miter;stroke-miterlimit:4;stroke-dasharray:none;stroke-opacity:1"
         d="m -1666.2003,-66.435117 c 126.9795,0 261.5459,4.543066 372.5724,8.551752 128.4446,4.637575 212.68,8.055774 326.12379,11.338988 208.72645,6.040823 370.01739,6.618405 524.89585,4.413166 143.53508,-2.043727 277.84834,-6.622988 375.903223,-10.082231 116.656105,-4.115469 172.457747,-6.270353 251.947327,-8.636613 129.54039,-3.856181 200.92879,-4.135567 231.34825,-4.171619 33.05816,-0.03918 33.05867,0.150017 33.05867,0.150017"
         id="path1118"
         inkscape:original-d="m -1666.2003,-66.435117 c 2115.84951,0 2115.84951,1.56346 2115.84951,1.56346" />
      <path
         style="fill:none;stroke:#d62828;stroke-width:1;stroke-linecap:butt;stroke-linejoin:miter;stroke-miterlimit:4;stroke-dasharray:none;stroke-opacity:1"
         d="m -1666.2003,-60.541826 c 126.9805,0 261.5507,4.143184 372.5832,7.798721 128.4385,4.228593 212.7021,7.345931 326.13801,10.338299 208.7348,5.506293 370.02491,6.02874 524.90127,4.018698 143.48578,-1.862212 277.88646,-6.033066 375.890209,-9.17561 116.362739,-3.731235 172.737621,-5.70274 251.936031,-7.835904 129.50894,-3.48825 200.9493,-3.719674 231.34224,-3.739651 33.05805,-0.02173 33.05855,0.158906 33.05855,0.158906"
         id="path1120"
         inkscape:original-d="m -1666.2003,-60.541826 c 2115.84951,0 2115.84951,1.563459 2115.84951,1.563459" />
      <path
         style="fill:none;stroke:#d62828;stroke-width:1;stroke-linecap:butt;stroke-linejoin:miter;stroke-miterlimit:4;stroke-dasharray:none;stroke-opacity:1"
         d="m -1666.2003,-54.648552 c 126.982,0 261.5548,3.662512 372.594,6.893843 128.4386,3.737667 212.7179,6.493231 326.15223,9.137418 208.74473,4.865898 370.03083,5.325291 524.90669,3.551942 143.42765,-1.642264 277.93341,-5.32116 375.877195,-8.084351 116.00548,-3.272748 173.081385,-5.021153 251.924725,-6.878395 129.48618,-3.050189 200.96114,-3.225339 231.33624,-3.226382 33.05793,-0.0011 33.05843,0.169384 33.05843,0.169384"
         id="path1122"
         inkscape:original-d="m -1666.2003,-54.648552 c 2115.84951,0 2115.84951,1.563459 2115.84951,1.563459" />
      <path
         style="fill:none;stroke:#d62828;stroke-width:1;stroke-linecap:butt;stroke-linejoin:miter;stroke-miterlimit:4;stroke-dasharray:none;stroke-opacity:1"
         d="m -1666.2003,-48.755278 c 190.2437,0 570.4452,11.139364 698.77125,13.694429 208.75704,4.156503 370.03438,4.548708 524.91211,3.040077 143.3578,-1.396417 277.9921,-4.527976 375.864181,-6.870999 115.568838,-2.766678 173.504539,-4.264559 251.913419,-5.819295 129.47711,-2.567345 200.9593,-2.681251 231.33024,-2.661592 33.0578,0.0214 33.05831,0.18084 33.05831,0.18084"
         id="path1124"
         inkscape:original-d="m -1666.2003,-48.755278 c 2115.84951,0 2115.84951,1.56346 2115.84951,1.56346" />
      <path
         style="fill:none;stroke:#d62828;stroke-width:1;stroke-linecap:butt;stroke-linejoin:miter;stroke-miterlimit:4;stroke-dasharray:none;stroke-opacity:1"
         d="m -1666.2003,-42.861987 c 190.281,0 570.4283,9.169542 698.79627,11.274295 208.77314,3.423095 370.03415,3.748503 524.91753,2.516081 143.27346,-1.140041 278.06526,-3.703343 375.851167,-5.612037 115.037677,-2.245433 174.022203,-3.480641 251.902113,-4.725923 129.49155,-2.070541 200.93394,-2.122316 231.32425,-2.081487 33.05766,0.04441 33.05818,0.19253 33.05818,0.19253"
         id="path1126"
         inkscape:original-d="m -1666.2003,-42.861987 c 2115.84951,0 2115.84951,1.563459 2115.84951,1.563459" />
      <path
         style="fill:none;stroke:#d62828;stroke-width:1;stroke-linecap:butt;stroke-linejoin:miter;stroke-miterlimit:4;stroke-dasharray:none;stroke-opacity:1"
         d="m -1666.2003,-36.968696 c 190.4088,0 570.3208,7.272209 698.82129,8.94545 208.79551,2.718785 370.02763,2.983054 524.92295,2.01874 143.17527,-0.89135 278.15228,-2.906226 375.838153,-4.397896 114.409289,-1.747037 174.637097,-2.725928 251.890807,-3.677716 129.54767,-1.596064 200.86691,-1.589678 231.31825,-1.528702 33.05751,0.0662 33.05806,0.203583 33.05806,0.203583"
         id="path1128"
         inkscape:original-d="m -1666.2003,-36.968696 c 2115.84951,0 2115.84951,1.563459 2115.84951,1.563459" />
      <path
         style="fill:none;stroke:#d62828;stroke-width:1;stroke-linecap:butt;stroke-linejoin:miter;stroke-miterlimit:4;stroke-dasharray:none;stroke-opacity:1"
         d="m -1666.2003,-137.15452 c 192.9174,0 567.466,4.85959 698.39593,6.03056 208.77223,1.86716 369.78135,2.12014 524.83084,1.53941 143.83912,-0.53875 277.67837,-1.83476 376.059389,-2.82362 -275.803229,2.77219 527.886211,-5.2196 252.082981,-2.44742 130.68741,-1.07607 199.91279,-1.03084 231.42026,-0.94887 33.06017,0.086 33.06012,0.2134 33.06012,0.2134"
         id="path1130"
         inkscape:original-d="m -1666.2003,-137.15452 c 2115.84952,0 2115.84952,1.56346 2115.84952,1.56346" />
      <path
         style="fill:none;stroke:#d62828;stroke-width:1;stroke-linecap:butt;stroke-linejoin:miter;stroke-miterlimit:4;stroke-dasharray:none;stroke-opacity:1"
         d="m -1666.2003,-31.075425 c 190.71,0 570.04,5.611028 698.84632,6.909288 208.828,2.104812 370.01098,2.319603 524.92836,1.592648 143.07888,-0.671402 278.23749,-2.204718 375.825139,-3.332951 113.729732,-1.314855 175.303161,-2.066063 251.879501,-2.766217 129.67516,-1.185649 200.7285,-1.130737 231.31225,-1.052303 33.05735,0.08478 33.05794,0.212995 33.05794,0.212995"
         id="path1132"
         inkscape:original-d="m -1666.2003,-31.075425 c 2115.84951,0 2115.84951,1.56346 2115.84951,1.56346" />
    </g>
  </g>
</svg>
